# xmcd
#
# Track frame offsets:
# 150
# 8903
# 20710
# 32650
# 44826
# 55658
# 69472
# 83083
# 97552
# 111121
# 114337
# 128495
# 141848
# 154499
# 164725
# 176407
# 188332
# 200990
# 211362
#
# Disc length: 2938 seconds
#
#
# Revision: 0
# Processed by: cddbd v1.5.1PL0 Copyright (c) Steve Scherf et al.
# Submitted via: FreeRIP 2.91 
#
DISCID=030b7813
DTITLE=The Old school Bluegrass Band - Classics
DYEAR=1900
DGENRE=Country
TTITLE0=Pig in the pen
TTITLE1=Columbus Stockade Blues
TTITLE2=Yellow Rose of Texas
TTITLE3=Dixieland for Me
TTITLE4=Salty Dog Blues
TTITLE5=Eight More Miles to Luisville
TTITLE6=Get in Line Brothers
TTITLE7=Rockytop
TTITLE8=Harbor of love
TTITLE9=Cripple Creek
TTITLE10=Little Cabin Home on the Hill
TTITLE11=Lonesome Feeling
TTITLE12=You Are My Flower
TTITLE13=Arkansas Traveler
TTITLE14=Using My Bible for a roadmap
TTITLE15=Down the Road
TTITLE16=Fox on the Run
TTITLE17=Duelin' Banjos
TTITLE18=Sea of Life
EXTD=
EXTT0=
EXTT1=
EXTT2=
EXTT3=
EXTT4=
EXTT5=
EXTT6=
EXTT7=
EXTT8=
EXTT9=
EXTT10=
EXTT11=
EXTT12=
EXTT13=
EXTT14=
EXTT15=
EXTT16=
EXTT17=
EXTT18=
PLAYORDER=
